<?xml version="1.0" encoding="UTF-8" standalone="no"?>
<!-- Created with Inkscape (http://www.inkscape.org/) -->

<svg
   version="1.1"
   id="svg1"
   width="384"
   height="384"
   viewBox="0 0 384 384"
   xml:space="preserve"
   xmlns="http://www.w3.org/2000/svg"
   xmlns:svg="http://www.w3.org/2000/svg"><defs
     id="defs1" /><g
     id="g1"><rect
       style="fill:#f7c9a0;fill-opacity:1;stroke:#000000;stroke-width:1.28327;stroke-opacity:0"
       id="rect2"
       width="408.09253"
       height="404.44803"
       x="-16.358284"
       y="-5.4250054" /><path
       style="fill:#000000"
       d="m 53.746466,361.78393 v -3.2 h 4.73735 4.73735 l 1.57545,-0.99912 c 2.033854,-1.28983 5.087636,-4.46641 6.262064,-6.51388 l 0.92178,-1.607 0.003,-7.28 0.003,-7.28 h -24.159994 -24.16 v -4.51512 -4.51512 l 4.750496,-6.44488 c 14.36066,-19.48275 24.892482,-35.44304 43.810956,-66.39264 l 1.630711,-2.66775 5.383919,-2.1644 c 2.961155,-1.19042 7.687918,-3.20201 10.503918,-4.4702 2.816,-1.26819 5.3,-2.38512 5.52,-2.48208 0.318831,-0.14051 0.4,8.10988 0.4,40.65795 v 40.83424 h 8.960004 8.96 v 6.08 6.08 h -8.96 -8.960004 v 6.98889 6.98889 l 0.990313,1.98179 c 1.152945,2.30725 4.672401,6.05129 6.624401,7.04712 0.82477,0.42077 1.9247,0.67331 2.93254,0.67331 h 1.61275 v 3.2 3.2 h -27.040004 -27.04 z m 18.560513,-53.68 c 2.83e-4,-8.052 0.09559,-19.5 0.211786,-25.44 0.182038,-9.30557 0.147235,-10.8 -0.251519,-10.8 -0.254535,0 -0.733767,0.468 -1.064959,1.04 -2.080522,3.59326 -13.601417,21.85058 -18.022174,28.56 -4.566754,6.931 -10.430079,15.37549 -13.831189,19.92 l -1.017825,1.36 h 16.987684 16.987683 z m 67.199491,56.36699 c -3.81898,-1.02177 -6.9705,-3.71649 -8.74969,-7.48145 -1.7838,-3.77471 -1.51602,-9.02355 0.64881,-12.71755 2.69457,-4.59795 8.56892,-7.41214 13.62088,-6.52528 3.88681,0.68231 7.78138,3.33572 9.68326,6.59729 2.12633,3.64648 2.35708,9.02898 0.5449,12.71005 -3.02425,6.14313 -9.35866,9.12646 -15.74816,7.41694 z m 59.2,-2.68699 v -3.2 h 4.53897 c 3.87472,0 4.73114,-0.093 5.85215,-0.6357 1.63512,-0.79155 5.00487,-4.07895 6.53524,-6.37554 l 1.15364,-1.73124 0.0964,-7.46674 0.0964,-7.46675 -24.25642,-0.082 -24.25643,-0.082 -0.0896,-4.08313 c -0.0595,-2.71316 0.0386,-4.32365 0.29248,-4.8 0.21014,-0.39428 1.62769,-2.37287 3.1501,-4.39687 12.42921,-16.52422 27.86127,-39.75263 43.74796,-65.84963 l 3.17139,-5.20962 5.52616,-2.2315 c 3.03939,-1.22733 7.78411,-3.24707 10.54383,-4.48833 2.75971,-1.24125 5.19766,-2.33615 5.41766,-2.43311 0.31883,-0.14051 0.4,8.10988 0.4,40.65795 v 40.83421 h 8.96 8.96 v 6.08 6.08 h -8.98128 -8.98128 l 0.10128,7.44 0.10128,7.44 1.24547,1.92 c 1.51831,2.34061 4.76727,5.58738 6.33611,6.33185 0.63533,0.30148 1.88938,0.54815 2.78678,0.54815 h 1.63171 v 3.2 3.2 h -27.04 -27.04 z m 18.56,-64.48 c 0,-13.992 -0.11087,-25.44 -0.24638,-25.44 -0.13551,0 -0.88277,1.044 -1.66059,2.32 -4.73597,7.76935 -13.91682,22.25289 -18.10366,28.56 -3.97726,5.99139 -12.2603,17.87389 -13.66274,19.6 -0.25923,0.31906 3.11484,0.4 16.67419,0.4 h 16.99918 z m 81.6,64.48 v -3.2 h 4.53897 c 5.61317,0 6.2268,-0.2477 9.74984,-3.93561 3.9192,-4.10262 3.95119,-4.20508 3.95119,-12.65743 v -7.08294 l -24.24,-0.082 -24.24,-0.082 -0.08,-4.32 -0.08,-4.32 2.28256,-3.04 c 14.05685,-18.72146 27.06041,-38.20215 43.85478,-65.69903 l 4.26261,-6.97904 5.49864,-2.20761 c 3.02426,-1.21419 7.77626,-3.2353 10.56,-4.49135 2.78375,-1.25605 5.24136,-2.35746 5.46136,-2.44759 0.31877,-0.13058 0.4,8.12894 0.4,40.67038 v 40.83422 h 8.96 8.96 v 6.08 6.08 h -8.96 -8.96 v 7.11541 7.1154 l 0.88,1.75377 c 1.03076,2.05423 5.14774,6.35139 6.84836,7.14808 0.6426,0.30104 1.9026,0.54734 2.8,0.54734 h 1.63169 v 3.2 3.2 h -27.04 -27.04 z m 18.56,-64.50667 c 0,-16.36816 -0.11125,-25.42855 -0.31139,-25.36 -0.17127,0.0587 -3.21298,4.78667 -6.75935,10.50667 -7.78674,12.55932 -16.1628,25.29596 -21.84629,33.21947 -2.31163,3.22271 -4.40053,6.13871 -4.642,6.48 -0.43283,0.61176 -0.19885,0.62053 16.56,0.62053 h 16.99903 z m -178.40418,12.42931 c -3.88642,-1.3881 -6.56649,-3.78682 -8.25138,-7.38517 -0.83321,-1.77944 -1.0217,-2.61988 -1.12527,-5.01747 -0.18002,-4.16717 0.86155,-7.07606 3.5916,-10.03055 5.17125,-5.59638 14.24038,-5.67261 19.43196,-0.16333 2.8312,3.00444 3.94248,6.07399 3.7391,10.32797 -0.24284,5.07918 -2.94854,9.18651 -7.54959,11.46047 -2.13488,1.05511 -2.69304,1.18969 -5.30897,1.28006 -2.20039,0.076 -3.31996,-0.0407 -4.52745,-0.47198 z M 152.20107,40.611865 c -1.06635,-1.066354 -1.00857,-1.067936 39.00886,-1.067936 37.18343,0 39.21786,0.02913 39.11563,0.56 -0.1019,0.529138 -2.25172,0.564479 -39.00886,0.641269 -21.39556,0.0447 -38.9976,-0.0153 -39.11563,-0.133333 z m 23.38446,-15.335539 c -0.33821,-0.338214 0.0498,-0.772397 0.69023,-0.772397 0.6952,0 1.63071,-0.974739 1.63071,-1.6991 0,-0.297077 -0.35048,-0.616673 -0.8,-0.729494 -0.97661,-0.245113 -1.03313,-0.635798 -0.12629,-0.872942 1.02488,-0.268012 0.53505,-1.025826 -0.62781,-0.971281 -1.13345,0.05317 -1.31508,-0.339199 -0.38694,-0.835924 1.57952,-0.845334 3.27959,-4.36e-4 2.68416,1.333972 -0.23512,0.526924 -0.17203,0.825863 0.26697,1.264857 0.70273,0.702734 0.40872,1.745929 -0.72308,2.565571 -0.89876,0.650871 -2.29115,1.033539 -2.60795,0.716738 z m -57.51906,-0.452397 c 0,-0.176 0.144,-0.32 0.32,-0.32 0.18489,0 0.32,-1.013333 0.32,-2.4 0,-1.32 -0.10259,-2.4 -0.22798,-2.4 -0.12539,0 -0.55221,0.396 -0.94849,0.88 l -0.72051,0.88 -0.0115,-1.2 -0.0115,-1.2 h 2.88 2.88 v 1.12 c 0,1.320164 -0.36506,1.42728 -1.09057,0.32 -0.2883,-0.44 -0.66486,-0.8 -0.83681,-0.8 -0.41334,0 -0.40637,4.38429 0.007,4.64 0.725,0.448075 0.2323,0.8 -1.12,0.8 -0.792,0 -1.44,-0.144 -1.44,-0.32 z m 5.28,-2.72 v -3.04 h 1.2 c 1.14651,0 1.56251,0.378186 0.88,0.8 -0.176,0.108774 -0.32,0.549272 -0.32,0.978885 0,0.654572 0.15552,0.781115 0.96,0.781115 0.8381,0 0.96,-0.113778 0.96,-0.896 0,-0.4928 -0.1728,-1.0688 -0.384,-1.28 -0.29867,-0.298667 -0.0356,-0.384 1.184,-0.384 1.21956,0 1.48267,0.08533 1.184,0.384 -0.48683,0.486826 -0.5276,5.056 -0.0451,5.056 0.18638,0 0.24988,0.144 0.14111,0.32 -0.10877,0.176 -0.76527,0.32 -1.45889,0.32 -0.69361,0 -1.26111,-0.144 -1.26111,-0.32 0,-0.176 0.144,-0.32 0.32,-0.32 0.176,0 0.32,-0.513565 0.32,-1.141255 0,-1.056219 -0.0656,-1.133711 -0.88,-1.04 -0.64464,0.07417 -0.90864,0.30369 -0.98709,0.858162 -0.0589,0.416299 0.0491,0.913099 0.24,1.104 0.61551,0.615519 0.37369,0.859093 -0.85292,0.859093 h -1.2 z m 6.56,2.738885 c 0,-0.165613 0.144,-0.390111 0.32,-0.498885 0.176,-0.108774 0.32,-1.197272 0.32,-2.418885 0,-1.26741 -0.1374,-2.221115 -0.32,-2.221115 -0.176,0 -0.32,-0.144 -0.32,-0.32 0,-0.176 0.54,-0.32 1.2,-0.32 h 1.2 v 3.04 3.04 h -1.2 c -0.66,0 -1.2,-0.135502 -1.2,-0.301115 z m 3.65408,0.0078 c -0.22649,-0.22523 -0.14831,-1.946667 0.0884,-1.946667 0.12237,0 0.61777,0.378705 1.1009,0.841567 0.52532,0.503294 1.07902,0.764583 1.37751,0.650043 0.8791,-0.337344 0.53709,-1.010299 -0.84359,-1.659892 -1.68593,-0.793204 -2.09396,-1.428728 -1.67882,-2.614832 0.28293,-0.808375 0.47945,-0.906444 1.99129,-0.993733 1.76868,-0.102119 2.28882,0.297147 1.85611,1.424782 -0.18016,0.469466 -0.28369,0.451746 -0.93487,-0.16 -0.40274,-0.378382 -0.97498,-0.687953 -1.27163,-0.687953 -0.94816,0 -0.5779,0.976564 0.54873,1.4473 1.42827,0.596767 2.11189,1.310842 2.11189,2.205961 0,1.196463 -0.9972,1.830591 -2.70809,1.722097 -0.82706,-0.05245 -1.56408,-0.155358 -1.63783,-0.228691 z m 7.86592,-0.02669 c 0,-0.176 0.144,-0.32 0.32,-0.32 0.18489,0 0.32,-1.013333 0.32,-2.4 0,-1.386667 -0.13511,-2.4 -0.32,-2.4 -0.176,0 -0.32,-0.144 -0.32,-0.32 0,-0.176 0.648,-0.32 1.44,-0.32 0.792,0 1.44,0.144 1.44,0.32 0,0.176 -0.144,0.32 -0.32,0.32 -0.18489,0 -0.32,1.013333 -0.32,2.4 0,1.386667 0.13511,2.4 0.32,2.4 0.176,0 0.32,0.144 0.32,0.32 0,0.176 -0.648,0.32 -1.44,0.32 -0.792,0 -1.44,-0.144 -1.44,-0.32 z m 3.84,-0.898035 v -1.078857 l 1.00267,0.843692 c 0.55147,0.464031 1.22354,0.800831 1.49348,0.748446 1.03613,-0.201069 0.68291,-0.895077 -0.85122,-1.672476 -1.82032,-0.92243 -2.25689,-1.769516 -1.50409,-2.918438 0.43149,-0.658541 0.76934,-0.784332 2.10654,-0.784332 1.55624,0 1.59262,0.02193 1.59262,0.96 0,1.101955 -0.45953,1.255132 -0.96,0.32 -0.2003,-0.374255 -0.67002,-0.64 -1.13126,-0.64 -1.28373,0 -0.91531,0.829321 0.73126,1.64605 1.27093,0.630406 1.53594,0.91779 1.61728,1.753812 0.14294,1.469114 -0.60382,2.052961 -2.51921,1.969622 -1.56513,-0.0681 -1.57807,-0.07751 -1.57807,-1.147519 z m 8.16,-1.821965 v -3.04 h 1.2 c 0.66,0 1.2,0.144 1.2,0.32 0,0.176 -0.144,0.32 -0.32,0.32 -0.176,0 -0.32,0.432 -0.32,0.96 0,0.853333 0.10667,0.96 0.96,0.96 0.85333,0 0.96,-0.106667 0.96,-0.96 0,-0.528 -0.144,-0.96 -0.32,-0.96 -0.176,0 -0.32,-0.144 -0.32,-0.32 0,-0.176 0.54,-0.32 1.2,-0.32 h 1.2 v 3.04 3.04 h -1.2 c -1.14651,0 -1.56251,-0.378186 -0.88,-0.8 0.176,-0.108774 0.32,-0.621272 0.32,-1.138885 0,-0.83235 -0.11095,-0.941115 -0.96,-0.941115 -0.88381,0 -0.96,0.08889 -0.96,1.12 0,0.616 0.144,1.12 0.32,1.12 0.176,0 0.32,0.144 0.32,0.32 0,0.176 -0.54,0.32 -1.2,0.32 h -1.2 z m 6.4,2.72 c -0.10877,-0.176 -0.0453,-0.32 0.14111,-0.32 0.48249,0 0.44172,-4.569174 -0.0451,-5.056 -0.29867,-0.298667 -0.0498,-0.384 1.12,-0.384 0.8272,0 1.504,0.144 1.504,0.32 0,0.176 -0.144,0.32 -0.32,0.32 -0.1826,0 -0.32,0.953705 -0.32,2.221115 0,1.221613 0.144,2.310111 0.32,2.418885 0.176,0.108774 0.32,0.333272 0.32,0.498885 0,0.404153 -2.46914,0.38701 -2.72,-0.01889 z m 3.68,-0.869589 c 0,-0.577726 0.0654,-1.050411 0.14545,-1.050411 0.08,0 0.51537,0.369911 0.96748,0.822024 0.83432,0.834316 1.76706,0.939259 2.0047,0.225547 0.0722,-0.21691 -0.51139,-0.704358 -1.30483,-1.089844 -1.77973,-0.86466 -2.37035,-1.947518 -1.65647,-3.037033 0.41427,-0.632265 0.76731,-0.760694 2.09105,-0.760694 1.55624,0 1.59262,0.02193 1.59262,0.96 0,1.113358 -0.31843,1.228401 -0.88574,0.32 -0.41398,-0.662889 -1.99426,-0.904668 -1.99426,-0.305117 0,0.184186 0.44777,0.580186 0.99504,0.88 1.78965,0.980425 2.28496,1.513569 2.28496,2.459498 0,1.246844 -0.84032,1.774362 -2.69776,1.693544 -1.51614,-0.06597 -1.54224,-0.08488 -1.54224,-1.117514 z m 8.32,0.888474 c 0,-0.165613 0.144,-0.390111 0.32,-0.498885 0.176,-0.108774 0.32,-0.965866 0.32,-1.904649 0,-1.312581 -0.12591,-1.755195 -0.54506,-1.916038 -0.46006,-0.176542 -0.39768,-0.30631 0.4,-0.832128 0.51978,-0.342632 1.05306,-0.623917 1.18506,-0.625076 0.132,-0.0012 0.24,1.141393 0.24,2.539006 0,1.397613 0.144,2.630111 0.32,2.738885 0.69757,0.431121 0.25491,0.8 -0.96,0.8 -0.704,0 -1.28,-0.135502 -1.28,-0.301115 z m 9.28,-0.01889 c 0,-0.176 0.144,-0.32 0.32,-0.32 0.18489,0 0.32,-1.013333 0.32,-2.4 0,-1.32 -0.10259,-2.4 -0.22798,-2.4 -0.12539,0 -0.55221,0.396 -0.94849,0.88 l -0.72051,0.88 -0.0115,-1.2 -0.0115,-1.2 h 2.88 2.88 v 1.12 c 0,1.31686 -0.36193,1.437503 -0.96,0.32 -0.23548,-0.44 -0.61981,-0.8 -0.85407,-0.8 -0.64997,0 -0.59878,4.433756 0.0541,4.68428 0.98626,0.378483 0.42719,0.75572 -1.12005,0.75572 -0.88,0 -1.6,-0.144 -1.6,-0.32 z m 5.28,-2.72 v -3.04 h 1.2 c 0.66,0 1.2,0.144 1.2,0.32 0,0.176 -0.144,0.32 -0.32,0.32 -0.176,0 -0.32,0.432 -0.32,0.96 0,0.853333 0.10667,0.96 0.96,0.96 0.85333,0 0.96,-0.106667 0.96,-0.96 0,-0.528 -0.144,-0.96 -0.32,-0.96 -0.176,0 -0.32,-0.144 -0.32,-0.32 0,-0.176 0.54,-0.32 1.2,-0.32 h 1.2 v 3.04 3.04 h -1.2 c -0.66,0 -1.2,-0.144 -1.2,-0.32 0,-0.176 0.144,-0.32 0.32,-0.32 0.176,0 0.32,-0.504 0.32,-1.12 0,-1.031111 -0.0762,-1.12 -0.96,-1.12 -0.84905,0 -0.96,0.108765 -0.96,0.941115 0,0.517613 0.144,1.030111 0.32,1.138885 0.68251,0.421814 0.26651,0.8 -0.88,0.8 h -1.2 z m 9.44,1.851281 c 0,-0.578204 0.0654,-1.051281 0.14545,-1.051281 0.08,0 0.51537,0.369911 0.96748,0.822024 0.82919,0.829182 1.76678,0.940116 2.00096,0.236748 0.0698,-0.209676 -0.35026,-0.623041 -0.93348,-0.918589 -1.60986,-0.815795 -2.18041,-1.434846 -2.18041,-2.365779 0,-1.219936 0.56297,-1.614404 2.304,-1.614404 1.49333,0 1.536,0.02667 1.536,0.96 0,1.12111 -0.31897,1.227538 -0.89838,0.299756 -0.24338,-0.389713 -0.67347,-0.61917 -1.04965,-0.56 -1.0509,0.165297 -0.83021,0.695632 0.6231,1.497324 1.76556,0.973935 2.25181,1.957422 1.52,3.074309 -0.4787,0.730587 -0.72194,0.809814 -2.28539,0.74439 -1.74966,-0.07322 -1.74968,-0.07323 -1.74968,-1.124498 z m 6.08,0.902955 c 0,-0.15717 0.216,-0.36865 0.48,-0.469956 0.65285,-0.250524 0.70404,-4.68428 0.0541,-4.68428 -0.23426,0 -0.61859,0.36 -0.85407,0.8 -0.59807,1.117503 -0.96,0.99686 -0.96,-0.32 v -1.12 h 2.88 2.88 l -0.0115,1.2 -0.0115,1.2 -0.72051,-0.88 c -1.17644,-1.436854 -1.49647,-1.143864 -1.49647,1.370043 0,1.704841 0.11631,2.294675 0.48,2.434237 0.98626,0.378483 0.42719,0.75572 -1.12005,0.75572 -0.88,0 -1.6,-0.128594 -1.6,-0.285764 z m 6.45578,-0.45486 c -0.55956,-0.595626 -0.69578,-1.128146 -0.69578,-2.72 0,-1.106251 -0.14116,-1.979376 -0.32,-1.979376 -0.176,0 -0.32,-0.144 -0.32,-0.32 0,-0.176 0.648,-0.32 1.44,-0.32 0.792,0 1.44,0.144 1.44,0.32 0,0.176 -0.15058,0.32 -0.33462,0.32 -0.20912,0 -0.29913,0.81009 -0.24,2.16 0.0867,1.978744 0.15652,2.168775 0.83223,2.264564 0.40569,0.05751 0.94569,-0.06812 1.2,-0.279182 0.66077,-0.548388 0.61439,-3.447033 -0.0672,-4.200185 -0.50388,-0.556788 -0.47281,-0.585197 0.64,-0.585197 1.12057,0 1.52613,0.381885 0.8496,0.8 -0.176,0.108774 -0.32,1.053272 -0.32,2.098885 0,1.474448 -0.14364,2.04475 -0.64,2.541115 -0.89133,0.89133 -2.57836,0.842327 -3.46422,-0.100624 z m 5.38422,0.477971 c 0,-0.186767 0.144,-0.428573 0.32,-0.537347 0.176,-0.108774 0.32,-1.116774 0.32,-2.24 0,-1.123226 -0.144,-2.131226 -0.32,-2.24 -0.77048,-0.476185 -0.18966,-0.8 1.43495,-0.8 1.46759,0 1.91822,0.145875 2.752,0.890863 0.78859,0.704601 0.99705,1.148002 0.99705,2.120727 0,1.884893 -1.12053,2.82826 -3.56983,3.005427 -1.23834,0.08957 -1.93417,0.01774 -1.93417,-0.19967 z m 3.22104,-0.708606 c 0.49337,-0.264045 0.61896,-0.678133 0.61896,-2.040817 0,-1.771968 -0.53157,-2.6608 -1.3935,-2.330047 -0.30216,0.115949 -0.45574,0.792748 -0.48626,2.142824 -0.0582,2.575528 0.0975,2.85064 1.2608,2.22804 z m 3.01896,0.651259 c -0.10877,-0.176 -0.0453,-0.32 0.14111,-0.32 0.48249,0 0.44172,-4.569174 -0.0451,-5.056 -0.29867,-0.298667 -0.0498,-0.384 1.12,-0.384 0.8272,0 1.504,0.144 1.504,0.32 0,0.176 -0.144,0.32 -0.32,0.32 -0.1826,0 -0.32,0.953705 -0.32,2.221115 0,1.221613 0.144,2.310111 0.32,2.418885 0.176,0.108774 0.32,0.333272 0.32,0.498885 0,0.404153 -2.46914,0.38701 -2.72,-0.01889 z m 4.29538,-0.615385 c -1.22602,-1.226027 -1.26603,-2.78255 -0.10693,-4.160063 1.59744,-1.898453 4.9738,-1.030492 5.42894,1.395619 0.56889,3.032444 -3.13175,4.954695 -5.32201,2.764444 z m 3.22462,-0.344615 c 1.27451,-1.274509 0.49287,-4.16 -1.12689,-4.16 -0.93121,0 -1.43311,0.833144 -1.43311,2.378963 0,1.105018 0.86972,2.421037 1.6,2.421037 0.176,0 0.608,-0.288 0.96,-0.64 z m 5.44,1.065197 c 0,-0.118142 0.19587,-0.442142 0.43527,-0.72 0.2394,-0.277858 0.83063,-1.556119 1.31385,-2.840579 0.49768,-1.322874 1.03733,-2.282599 1.24473,-2.213637 0.20138,0.06696 0.79815,1.148952 1.32615,2.404426 0.528,1.255475 1.14,2.460412 1.36,2.677637 0.69566,0.68689 0.44184,0.906956 -1.0461,0.906956 -1.38271,0 -1.43729,-0.03506 -1.24531,-0.8 0.18192,-0.724819 0.10731,-0.8 -0.7939,-0.8 -0.67084,0 -0.99469,0.15628 -0.99469,0.48 0,0.264 0.1525,0.48 0.33889,0.48 0.18638,0 0.24988,0.144 0.14111,0.32 -0.21847,0.353496 -2.08,0.447644 -2.08,0.105197 z m 2.88,-2.665197 c 0,-0.352 -0.144,-0.64 -0.32,-0.64 -0.176,0 -0.32,0.288 -0.32,0.64 0,0.352 0.144,0.64 0.32,0.64 0.176,0 0.32,-0.288 0.32,-0.64 z m 4,-0.16 v -3.04 l 1.44,0.01018 c 1.26603,0.0089 1.37234,0.06154 0.88,0.435278 -0.43489,0.330128 -0.56,0.902032 -0.56,2.559866 0,2.576161 0.50035,2.994786 1.93577,1.619575 1.08901,-1.043339 1.41193,-0.905866 1.10926,0.472222 l -0.21588,0.982879 h -2.29458 -2.29457 z m 5.76,0 v -3.04 h 1.81714 c 1.22528,0 1.98093,0.163786 2.32,0.502857 0.57676,0.57676 0.66356,1.600054 0.16201,1.910026 -0.22444,0.138717 -0.16102,0.409352 0.18572,0.792497 0.71731,0.79262 0.48482,1.973054 -0.48487,2.461892 -0.44,0.221811 -1.52,0.405416 -2.4,0.408011 l -1.6,0.0047 z m 2.988,2.118911 c 0.68493,-0.434148 0.32453,-1.782929 -0.508,-1.901167 -0.6048,-0.0859 -0.72,0.04637 -0.72,0.826666 0,1.295925 0.36912,1.618906 1.228,1.074501 z m -0.108,-3.558911 c 0,-0.49914 -0.20673,-0.831048 -0.56,-0.899081 -0.43754,-0.08426 -0.56,0.112352 -0.56,0.899081 0,0.786729 0.12246,0.983343 0.56,0.899081 0.35327,-0.06803 0.56,-0.399941 0.56,-0.899081 z m 4.00814,3.84814 c -0.70161,-0.701612 -0.87172,-1.304368 -1.06345,-3.76814 l -0.13074,-1.68 h 1.23302 c 1.17473,0 1.60187,0.374271 0.91303,0.8 -0.46548,0.287682 -0.39218,3.138969 0.0979,3.809229 0.2569,0.351331 0.71926,0.529018 1.2,0.461161 0.73,-0.103041 0.78837,-0.254192 0.87669,-2.27039 0.0591,-1.34991 -0.0309,-2.16 -0.24,-2.16 -0.18404,0 -0.33462,-0.144 -0.33462,-0.32 0,-0.176 0.5328,-0.32 1.184,-0.32 0.92089,0 1.09867,0.08533 0.8,0.384 -0.2112,0.2112 -0.384,1.19978 -0.384,2.196845 0,2.333222 -0.80743,3.499155 -2.42323,3.499155 -0.66539,0 -1.34529,-0.248519 -1.72863,-0.63186 z m 5.43186,0.330745 c 0,-0.165613 0.144,-0.390111 0.32,-0.498885 0.176,-0.108774 0.32,-1.116774 0.32,-2.24 0,-1.123226 -0.144,-2.131226 -0.32,-2.24 -0.65595,-0.405398 -0.28571,-0.8 0.7506,-0.8 0.99707,0 1.12565,0.126371 1.87215,1.84 l 0.80155,1.84 0.83024,-1.84 c 0.72437,-1.605368 0.9447,-1.84 1.72785,-1.84 h 0.89761 v 3.04 3.04 h -1.2 c -1.14651,0 -1.56251,-0.378186 -0.88,-0.8 0.176,-0.108774 0.30933,-0.873272 0.29629,-1.698885 l -0.0237,-1.501115 -0.92151,2 c -0.50683,1.1 -1.00681,2 -1.11107,2 -0.10426,0 -0.60424,-0.9 -1.11107,-2 l -0.92151,-2 -0.0237,1.68 c -0.013,0.924 0.12029,1.68 0.29629,1.68 0.176,0 0.32,0.144 0.32,0.32 0,0.176 -0.432,0.32 -0.96,0.32 -0.528,0 -0.96,-0.135502 -0.96,-0.301115 z"
       id="path1" /></g></svg>
